<?xml version="1.0" encoding="UTF-8"?>
<!DOCTYPE svg PUBLIC "-//W3C//DTD SVG 1.1//EN" "http://www.w3.org/Graphics/SVG/1.1/DTD/svg11.dtd">
<!-- Creator: CorelDRAW -->
<svg xmlns="http://www.w3.org/2000/svg" xml:space="preserve" width="2048px" height="2048px" style="shape-rendering:geometricPrecision; text-rendering:geometricPrecision; image-rendering:optimizeQuality; fill-rule:evenodd; clip-rule:evenodd"
viewBox="0 0 2048 2048"
 xmlns:xlink="http://www.w3.org/1999/xlink">
 <defs>
  <style type="text/css">
   <![CDATA[
    .fil2 {fill:none}
    .fil1 {fill:#ffffff}
    .fil0 {fill:#ffffff;fill-rule:nonzero}
   ]]>
  </style>
 </defs>
 <g id="Layer_x0020_1">
  <metadata id="CorelCorpID_0Corel-Layer"/>
  <g id="_246795176">
   <g>
    <path id="_246795680" class="fil0" d="M701.436 770.153c84.3024,-24.6473 283.445,-88.8768 371.475,-168.637l-0.0944883 -0.105118c13.2331,-11.9929 33.6839,-10.9866 45.6768,2.24646 5.6126,6.19252 8.37875,13.9665 8.37638,21.7146l0 0.0377953 0 383 0 383.038c0,17.8583 -14.4791,32.3374 -32.3374,32.3374 -9.28465,0 -17.654,-3.91536 -23.5524,-10.1811 -88.9642,-78.9686 -285.847,-142.465 -369.544,-166.937l0 -476.514zm-34.6418 466.759l-160.955 0c-61.2863,0 -116.981,-25.05 -157.336,-65.4048 -40.3548,-40.3559 -65.4048,-96.0485 -65.4048,-157.336l0 -11.524c0,-61.2863 25.05,-116.98 65.4048,-157.336 40.3548,-40.3548 96.0497,-65.4048 157.336,-65.4048l160.955 0 0 457.005z"/>
    <path id="_246795872" class="fil0" d="M1159.21 1144.93c19.8307,-7.35945 37.6229,-18.9142 52.2981,-33.5882 26.3445,-26.3433 42.6426,-62.739 42.6426,-102.937 0,-40.1988 -16.298,-76.5945 -42.6426,-102.938 -14.6752,-14.674 -32.4673,-26.2288 -52.2981,-33.5882l0 273.051z"/>
    <path id="_246795608" class="fil0" d="M472.845 1172.24l124.194 0c17.8583,0 32.3374,14.478 32.3374,32.3374l0 317.799c0,17.8583 -14.4791,32.3374 -32.3374,32.3374l-124.194 0c-17.8583,0 -32.3374,-14.4791 -32.3374,-32.3374l0 -317.799c0,-17.8595 14.4791,-32.3374 32.3374,-32.3374z"/>
   </g>
   <path id="_246795464" class="fil0" d="M1579.06 296.177l119.293 206.62 -20.9374 12.1264 21.0047 -12.1264c6.69686,11.5996 2.72244,26.4331 -8.87835,33.1299 -0.655512,0.379134 -1.32402,0.721654 -1.99961,1.03347l-354.097 204.438 0.0519685 0.090945c-11.5996,6.69686 -26.4331,2.72244 -33.1299,-8.87717 -0.379134,-0.656693 -0.721654,-1.3252 -1.03347,-2.00079l-118.146 -204.637 12.7311 1.76575 0.0165354 -0.0543308 242.747 33.6744c18.7677,2.60315 37.4103,-6.63308 44.6823,-24.5386l2.97284 -7.32048 -0.0188977 -0.0307087 94.5875 -232.91 0.153543 -0.383859z"/>
   <path id="_246794720" class="fil0" d="M1563.93 290.477l-97.5591 240.23 0.0177165 0.0307087c-4.48819,11.0539 -16.2059,17.002 -27.4819,14.6079l-256.331 -35.5583 -0.0165354 0.0543308c-13.2662,-1.83898 -22.5295,-14.0882 -20.6906,-27.3544 1.15039,-8.30197 6.37914,-15.0378 13.3831,-18.4642l354.557 -204.703 12.1264 20.9362 -12.1264 -21.0036c11.6008,-6.69686 26.4331,-2.72244 33.1299,8.87717 4.10433,7.1067 4.19882,15.4276 0.992127,22.3465z"/>
   <path id="_246794648" class="fil1" d="M1740.65 848.673l-411.126 0c-13.3937,0 -24.2528,10.8579 -24.2528,24.2516l0 270.969c0,13.3937 10.8591,24.2528 24.2528,24.2528l411.126 0c13.3937,0 24.2528,-10.8591 24.2528,-24.2528l0 -270.969c0,-13.3937 -10.8591,-24.2516 -24.2528,-24.2516zm-276.489 93.7666c0,-13.3937 10.8579,-24.2528 24.2516,-24.2528 5.74489,0 11.0221,1.99843 15.176,5.33622l92.1013 65.0859 0.0708662 -0.00708662c10.9382,7.72914 13.539,22.865 5.80985,33.8032 -1.96063,2.77441 -4.39961,5.01142 -7.12323,6.6815l-92.0635 65.0599 0.0259843 0.0377953c-10.9382,7.72914 -26.0729,5.12835 -33.802,-5.80985 -3.03425,-4.29331 -4.47756,-9.23387 -4.44685,-14.1201l0 -131.815z"/>
   <path id="_246795320" class="fil1" d="M1688.08 1511.3l-354.58 -204.717 0 -0.0673229c-11.5996,-6.69686 -26.4331,-2.72244 -33.1299,8.87717 -0.277559,0.483071 -0.536221,0.972048 -0.778347,1.46339l-134.64 233.203 -0.0661418 0c-6.69686,11.5996 -2.72244,26.4331 8.87717,33.1299 0.656693,0.379134 1.3252,0.721654 2.00079,1.03347l354.097 204.438 -0.0531496 0.090945c11.6008,6.69686 26.4331,2.72244 33.1299,-8.87717 0.380315,-0.656693 0.722835,-1.3252 1.03347,-2.00079l134.36 -232.718 0.090945 0.0519685c6.69686,-11.5996 2.72244,-26.4331 -8.87835,-33.1299 -0.48189,-0.277559 -0.970867,-0.536221 -1.46339,-0.778347zm-157.851 35.3776c-11.563,-6.69686 -15.5079,-21.4996 -8.81103,-33.0626 6.69686,-11.563 21.5008,-15.5079 33.0638,-8.81103l47.6315 27.4996c11.563,6.69686 15.5067,21.5008 8.80985,33.0638 -6.69686,11.563 -21.4996,15.5079 -33.0626,8.80985l-47.6315 -27.4996zm-98.5749 -72.5717c20.3008,0 38.6835,8.23229 51.9886,21.5374 13.3063,13.3063 21.5374,31.689 21.5374,51.9898 0,20.2996 -8.23111,38.6835 -21.5374,51.9898 -13.3051,13.3051 -31.6878,21.5374 -51.9886,21.5374 -20.3008,0 -38.6847,-8.23229 -51.9898,-21.5374 -13.3051,-13.3063 -21.5374,-31.689 -21.5374,-51.9898 0,-20.3008 8.23229,-38.6835 21.5374,-51.9898 13.3051,-13.3051 31.689,-21.5374 51.9898,-21.5374z"/>
  </g>
 </g>
 <rect class="fil2" width="2048" height="2048"/>
</svg>
