<svg width="299.641" height="38.88" viewBox="0 0 299.641 38.88" xmlns="http://www.w3.org/2000/svg"><g id="svgGroup" stroke-linecap="round" fill-rule="evenodd" font-size="9pt" stroke="#000" stroke-width="0.25mm" fill="#ffffff" style="stroke:#000;stroke-width:0.25mm;fill:#ffffff"><path d="M 88.56 29.6 L 83.84 29.6 L 76.24 2.52 L 80 1.32 L 86.32 25.56 L 92.28 4.52 L 97.04 4.52 L 102.96 25.56 L 109.24 1.44 L 112.76 2.52 L 105.2 29.6 L 100.48 29.6 L 94.56 8.56 L 88.56 29.6 Z M 20.04 27.36 L 17.4 30.08 L 3.8 16.72 L 3.8 29.6 L 0 29.6 L 0 1.6 L 3.8 1.6 L 3.8 14.36 L 15.72 1.48 L 18.28 3.84 L 7.36 15.2 L 20.04 27.36 Z M 239.6 37.12 L 240.92 34 A 8.225 8.225 0 0 0 242.447 34.949 A 9.895 9.895 0 0 0 243.16 35.26 A 6.762 6.762 0 0 0 244.435 35.61 Q 245.274 35.76 246.28 35.76 A 8.68 8.68 0 0 0 248.088 35.583 Q 249.249 35.336 250.129 34.744 A 5.03 5.03 0 0 0 250.74 34.26 A 4.541 4.541 0 0 0 251.903 32.463 Q 252.36 31.223 252.36 29.48 L 252.36 26.92 Q 251.708 27.702 250.592 28.418 A 12.563 12.563 0 0 1 250.06 28.74 A 6.363 6.363 0 0 1 247.988 29.474 A 8.636 8.636 0 0 1 246.48 29.6 Q 244.12 29.6 242 28.38 A 8.894 8.894 0 0 1 239.083 25.645 A 10.975 10.975 0 0 1 238.56 24.8 A 10.072 10.072 0 0 1 237.475 21.75 A 14.013 14.013 0 0 1 237.24 19.12 A 12.824 12.824 0 0 1 237.607 15.997 A 10.673 10.673 0 0 1 238.54 13.56 A 10.283 10.283 0 0 1 240.965 10.511 A 9.779 9.779 0 0 1 242.04 9.72 Q 244.24 8.32 246.88 8.32 A 8.946 8.946 0 0 1 248.808 8.521 A 7.486 7.486 0 0 1 250.08 8.92 A 10.282 10.282 0 0 1 251.611 9.707 A 8.399 8.399 0 0 1 252.56 10.4 L 252.56 8.8 L 255.84 8.8 L 255.84 29.12 A 16.277 16.277 0 0 1 255.698 31.334 Q 255.537 32.503 255.195 33.477 A 8.066 8.066 0 0 1 254.64 34.72 Q 253.44 36.88 251.3 37.88 A 10.324 10.324 0 0 1 248.658 38.689 A 14.097 14.097 0 0 1 246.28 38.88 Q 244.44 38.88 242.7 38.44 A 10.893 10.893 0 0 1 240.58 37.673 A 9.407 9.407 0 0 1 239.6 37.12 Z M 265.64 29.6 L 262.04 29.6 L 262.04 8.8 L 265.52 8.8 L 265.52 12.28 Q 266.64 10.6 268.38 9.46 Q 270.12 8.32 272.52 8.32 Q 276.04 8.32 277.78 10.44 A 7.361 7.361 0 0 1 279.222 13.391 Q 279.483 14.448 279.515 15.683 A 13.506 13.506 0 0 1 279.52 16.04 L 279.52 29.6 L 275.92 29.6 L 275.92 16.44 Q 275.92 14.2 274.86 12.84 A 3.432 3.432 0 0 0 272.349 11.499 A 4.825 4.825 0 0 0 271.92 11.48 A 5.249 5.249 0 0 0 269.18 12.266 A 6.941 6.941 0 0 0 268.44 12.78 Q 266.8 14.08 265.64 15.84 L 265.64 29.6 Z M 208.12 27.92 L 209.64 24.92 A 7.423 7.423 0 0 0 210.897 25.77 Q 211.515 26.105 212.248 26.376 A 12.168 12.168 0 0 0 212.26 26.38 A 9.629 9.629 0 0 0 215.304 26.955 A 10.986 10.986 0 0 0 215.64 26.96 A 10.845 10.845 0 0 0 216.873 26.895 Q 218.147 26.748 218.934 26.274 A 3.096 3.096 0 0 0 219.02 26.22 A 2.98 2.98 0 0 0 219.633 25.703 A 2.021 2.021 0 0 0 220.16 24.32 A 2.849 2.849 0 0 0 220.034 23.461 A 2.485 2.485 0 0 0 219.74 22.84 Q 219.338 22.227 218.293 21.632 A 8.924 8.924 0 0 0 218.2 21.58 Q 217.188 21.02 215.361 20.378 A 41.443 41.443 0 0 0 214.96 20.24 A 18.647 18.647 0 0 1 213.201 19.543 Q 212.355 19.153 211.685 18.718 A 7.734 7.734 0 0 1 210.58 17.86 A 4.53 4.53 0 0 1 209.263 15.461 A 6.718 6.718 0 0 1 209.12 14.04 Q 209.12 11.64 211.22 9.98 A 7.106 7.106 0 0 1 213.634 8.761 Q 214.657 8.458 215.883 8.363 A 15.011 15.011 0 0 1 217.04 8.32 A 16.318 16.318 0 0 1 218.818 8.412 Q 219.741 8.514 220.548 8.726 A 10.073 10.073 0 0 1 220.6 8.74 A 15.508 15.508 0 0 1 222.254 9.282 A 12.444 12.444 0 0 1 223.4 9.8 L 222.4 12.76 A 9.811 9.811 0 0 0 220.933 12.054 A 12.077 12.077 0 0 0 219.94 11.72 A 10.01 10.01 0 0 0 218.147 11.381 A 12.735 12.735 0 0 0 216.88 11.32 Q 215.546 11.32 214.623 11.666 A 3.404 3.404 0 0 0 213.72 12.16 A 3.729 3.729 0 0 0 213.177 12.669 Q 212.896 12.997 212.762 13.346 A 1.812 1.812 0 0 0 212.64 14 A 1.968 1.968 0 0 0 213.238 15.421 A 2.833 2.833 0 0 0 213.48 15.64 Q 214.32 16.32 216.76 17.12 Q 220.183 18.261 221.813 19.612 A 5.979 5.979 0 0 1 222.28 20.04 A 5.439 5.439 0 0 1 223.834 23.739 A 7.158 7.158 0 0 1 223.84 24.04 Q 223.84 26.84 221.58 28.46 Q 219.684 29.819 216.705 30.038 A 16.169 16.169 0 0 1 215.52 30.08 A 15.996 15.996 0 0 1 213.175 29.916 A 12.379 12.379 0 0 1 211.26 29.48 Q 209.36 28.88 208.12 27.92 Z M 283.92 27.92 L 285.44 24.92 A 7.423 7.423 0 0 0 286.697 25.77 Q 287.315 26.105 288.048 26.376 A 12.168 12.168 0 0 0 288.06 26.38 A 9.629 9.629 0 0 0 291.104 26.955 A 10.986 10.986 0 0 0 291.44 26.96 A 10.845 10.845 0 0 0 292.673 26.895 Q 293.947 26.748 294.734 26.274 A 3.096 3.096 0 0 0 294.82 26.22 A 2.98 2.98 0 0 0 295.433 25.703 A 2.021 2.021 0 0 0 295.96 24.32 A 2.849 2.849 0 0 0 295.834 23.461 A 2.485 2.485 0 0 0 295.54 22.84 Q 295.138 22.227 294.093 21.632 A 8.924 8.924 0 0 0 294 21.58 Q 292.988 21.02 291.161 20.378 A 41.443 41.443 0 0 0 290.76 20.24 A 18.647 18.647 0 0 1 289.001 19.543 Q 288.155 19.153 287.485 18.718 A 7.734 7.734 0 0 1 286.38 17.86 A 4.53 4.53 0 0 1 285.063 15.461 A 6.718 6.718 0 0 1 284.92 14.04 Q 284.92 11.64 287.02 9.98 A 7.106 7.106 0 0 1 289.434 8.761 Q 290.457 8.458 291.683 8.363 A 15.011 15.011 0 0 1 292.84 8.32 A 16.318 16.318 0 0 1 294.618 8.412 Q 295.541 8.514 296.348 8.726 A 10.073 10.073 0 0 1 296.4 8.74 A 15.508 15.508 0 0 1 298.054 9.282 A 12.444 12.444 0 0 1 299.2 9.8 L 298.2 12.76 A 9.811 9.811 0 0 0 296.733 12.054 A 12.077 12.077 0 0 0 295.74 11.72 A 10.01 10.01 0 0 0 293.947 11.381 A 12.735 12.735 0 0 0 292.68 11.32 Q 291.346 11.32 290.423 11.666 A 3.404 3.404 0 0 0 289.52 12.16 A 3.729 3.729 0 0 0 288.977 12.669 Q 288.696 12.997 288.562 13.346 A 1.812 1.812 0 0 0 288.44 14 A 1.968 1.968 0 0 0 289.038 15.421 A 2.833 2.833 0 0 0 289.28 15.64 Q 290.12 16.32 292.56 17.12 Q 295.983 18.261 297.613 19.612 A 5.979 5.979 0 0 1 298.08 20.04 A 5.439 5.439 0 0 1 299.634 23.739 A 7.158 7.158 0 0 1 299.64 24.04 Q 299.64 26.84 297.38 28.46 Q 295.484 29.819 292.505 30.038 A 16.169 16.169 0 0 1 291.32 30.08 A 15.996 15.996 0 0 1 288.975 29.916 A 12.379 12.379 0 0 1 287.06 29.48 Q 285.16 28.88 283.92 27.92 Z M 140.48 27.88 L 140.48 29.6 L 137.12 29.6 L 137.12 0 L 140.72 0 L 140.72 10.96 A 6.204 6.204 0 0 1 141.475 10.236 Q 141.881 9.904 142.39 9.579 A 13.326 13.326 0 0 1 143.06 9.18 Q 144.6 8.32 146.72 8.32 Q 149.12 8.32 151.22 9.58 A 8.932 8.932 0 0 1 154.091 12.367 A 10.986 10.986 0 0 1 154.6 13.22 A 10.274 10.274 0 0 1 155.599 16.037 Q 155.854 17.278 155.878 18.703 A 17.709 17.709 0 0 1 155.88 19 Q 155.88 21.48 155.08 23.52 A 11.747 11.747 0 0 1 153.815 25.922 A 10.193 10.193 0 0 1 152.94 27.02 A 9.958 9.958 0 0 1 150.487 28.986 A 9.321 9.321 0 0 1 149.92 29.28 A 8.002 8.002 0 0 1 146.973 30.064 A 7.684 7.684 0 0 1 146.48 30.08 Q 144.68 30.08 143.1 29.42 A 12.11 12.11 0 0 1 141.779 28.777 Q 141.049 28.361 140.48 27.88 Z M 132.2 20.68 L 117.64 20.68 Q 117.975 23.4 119.456 25.01 A 5.992 5.992 0 0 0 119.68 25.24 A 5.658 5.658 0 0 0 122.73 26.764 A 8.008 8.008 0 0 0 124.12 26.88 Q 125.92 26.88 127.36 26.5 Q 128.8 26.12 130.12 25.52 L 130.96 28.6 Q 129.52 29.24 127.72 29.66 A 15.566 15.566 0 0 1 125.683 29.988 A 20.81 20.81 0 0 1 123.68 30.08 A 11.327 11.327 0 0 1 120.582 29.678 A 8.443 8.443 0 0 1 116.58 27.22 Q 114.257 24.684 113.994 20.34 A 18.85 18.85 0 0 1 113.96 19.2 Q 113.96 16.08 115.14 13.62 A 9.857 9.857 0 0 1 117.146 10.787 A 9.155 9.155 0 0 1 118.44 9.74 A 8.419 8.419 0 0 1 122.544 8.351 A 10.482 10.482 0 0 1 123.36 8.32 Q 126.074 8.32 127.954 9.384 A 6.885 6.885 0 0 1 128.34 9.62 Q 130.32 10.92 131.32 13.12 Q 132.32 15.32 132.32 17.96 A 30.081 30.081 0 0 1 132.204 20.639 A 27.836 27.836 0 0 1 132.2 20.68 Z M 205 20.68 L 190.44 20.68 Q 190.775 23.4 192.256 25.01 A 5.992 5.992 0 0 0 192.48 25.24 A 5.658 5.658 0 0 0 195.53 26.764 A 8.008 8.008 0 0 0 196.92 26.88 Q 198.72 26.88 200.16 26.5 Q 201.6 26.12 202.92 25.52 L 203.76 28.6 Q 202.32 29.24 200.52 29.66 A 15.566 15.566 0 0 1 198.483 29.988 A 20.81 20.81 0 0 1 196.48 30.08 A 11.327 11.327 0 0 1 193.382 29.678 A 8.443 8.443 0 0 1 189.38 27.22 Q 187.057 24.684 186.794 20.34 A 18.85 18.85 0 0 1 186.76 19.2 Q 186.76 16.08 187.94 13.62 A 9.857 9.857 0 0 1 189.946 10.787 A 9.155 9.155 0 0 1 191.24 9.74 A 8.419 8.419 0 0 1 195.344 8.351 A 10.482 10.482 0 0 1 196.16 8.32 Q 198.874 8.32 200.754 9.384 A 6.885 6.885 0 0 1 201.14 9.62 Q 203.12 10.92 204.12 13.12 Q 205.12 15.32 205.12 17.96 A 30.081 30.081 0 0 1 205.004 20.639 A 27.836 27.836 0 0 1 205 20.68 Z M 56.84 29.6 L 53.08 29.6 L 44.72 9.76 L 48 8.4 L 55.08 25.52 L 62.16 8.4 L 65.24 9.76 L 56.84 29.6 Z M 161.28 29.52 L 161.28 1.68 Q 163.16 1.48 164.96 1.38 Q 166.76 1.28 169.08 1.28 Q 172.425 1.28 174.924 2.247 A 11.679 11.679 0 0 1 175.3 2.4 Q 177.92 3.52 179.62 5.48 Q 181.32 7.44 182.14 10.02 A 17.702 17.702 0 0 1 182.929 14.418 A 20.603 20.603 0 0 1 182.96 15.56 A 18.123 18.123 0 0 1 182.368 20.239 A 16.721 16.721 0 0 1 182.12 21.08 Q 181.28 23.68 179.54 25.66 Q 177.8 27.64 175.1 28.78 Q 172.4 29.92 168.64 29.92 Q 166.36 29.92 164.66 29.8 Q 162.96 29.68 161.28 29.52 Z M 37.88 10.48 L 37.88 8.8 L 41.16 8.8 L 41.16 24.56 Q 41.16 26.08 41.9 26.54 Q 42.64 27 43.52 27 L 42.76 29.8 A 7.089 7.089 0 0 1 41.054 29.611 Q 38.799 29.051 38.161 26.832 A 5.436 5.436 0 0 1 38.12 26.68 A 8.523 8.523 0 0 1 36.876 28.05 A 11.399 11.399 0 0 1 35.62 29.02 A 5.971 5.971 0 0 1 33.639 29.861 Q 32.832 30.051 31.891 30.076 A 10.882 10.882 0 0 1 31.6 30.08 Q 29 30.08 26.88 28.76 A 9.179 9.179 0 0 1 23.915 25.749 A 11.169 11.169 0 0 1 23.5 25.02 A 10.891 10.891 0 0 1 22.448 21.843 A 14.658 14.658 0 0 1 22.24 19.32 A 13.257 13.257 0 0 1 22.639 16.013 A 11.187 11.187 0 0 1 23.5 13.72 Q 24.76 11.24 26.98 9.78 A 8.919 8.919 0 0 1 31.458 8.337 A 10.955 10.955 0 0 1 32.08 8.32 A 9.034 9.034 0 0 1 33.997 8.516 A 7.481 7.481 0 0 1 35.34 8.94 A 10.401 10.401 0 0 1 37.055 9.857 A 8.841 8.841 0 0 1 37.88 10.48 Z M 165.08 4.76 L 165.08 26.4 Q 165.92 26.52 166.84 26.56 Q 167.76 26.6 168.76 26.6 A 15.162 15.162 0 0 0 171.226 26.411 Q 173.197 26.086 174.64 25.2 Q 176.92 23.8 178 21.3 Q 179.08 18.8 179.08 15.56 Q 179.08 12.68 178 10.16 Q 176.92 7.64 174.68 6.1 A 8.358 8.358 0 0 0 171.859 4.876 Q 170.723 4.604 169.398 4.566 A 15.203 15.203 0 0 0 168.96 4.56 Q 167.8 4.56 166.84 4.62 Q 165.88 4.68 165.08 4.76 Z M 72.44 29.6 L 68.84 29.6 L 68.84 8.8 L 72.44 8.8 L 72.44 29.6 Z M 232.24 29.6 L 228.64 29.6 L 228.64 8.8 L 232.24 8.8 L 232.24 29.6 Z M 37.56 24.28 L 37.56 13.12 Q 36.48 12.36 35.18 11.9 Q 33.88 11.44 32.44 11.44 Q 30.52 11.44 29.06 12.42 A 6.52 6.52 0 0 0 27.052 14.59 A 7.985 7.985 0 0 0 26.76 15.14 Q 25.92 16.88 25.92 19.2 Q 25.92 21.44 26.76 23.18 A 7.041 7.041 0 0 0 28.002 24.998 A 6.279 6.279 0 0 0 29.08 25.9 Q 30.56 26.88 32.4 26.88 Q 33.92 26.88 35.28 26.14 A 7.78 7.78 0 0 0 37.168 24.719 A 7.228 7.228 0 0 0 37.56 24.28 Z M 140.72 14.16 L 140.72 25.28 A 7.196 7.196 0 0 0 142.172 26.154 A 8.721 8.721 0 0 0 142.88 26.44 A 7.785 7.785 0 0 0 145.346 26.878 A 8.815 8.815 0 0 0 145.52 26.88 A 6.796 6.796 0 0 0 147.526 26.593 A 5.899 5.899 0 0 0 148.98 25.92 A 6.381 6.381 0 0 0 151.041 23.756 A 7.859 7.859 0 0 0 151.34 23.2 A 8.347 8.347 0 0 0 152.079 20.781 A 10.991 10.991 0 0 0 152.2 19.12 A 11.219 11.219 0 0 0 152.041 17.183 Q 151.83 15.981 151.34 15 Q 150.48 13.28 149.06 12.36 Q 147.64 11.44 145.92 11.44 A 5.896 5.896 0 0 0 143.669 11.865 A 5.622 5.622 0 0 0 142.82 12.3 A 9.422 9.422 0 0 0 141.808 13.022 Q 141.313 13.43 140.948 13.866 A 5.176 5.176 0 0 0 140.72 14.16 Z M 252.24 24 L 252.24 13.12 Q 251.374 12.49 250.159 11.976 A 14.41 14.41 0 0 0 250.12 11.96 A 6.499 6.499 0 0 0 248.598 11.54 A 8.854 8.854 0 0 0 247.24 11.44 Q 245.6 11.44 244.16 12.32 Q 242.72 13.2 241.82 14.86 A 7.12 7.12 0 0 0 241.118 16.833 Q 240.945 17.675 240.923 18.641 A 12.458 12.458 0 0 0 240.92 18.92 A 9.728 9.728 0 0 0 241.111 20.894 A 7.324 7.324 0 0 0 241.82 22.88 A 7.43 7.43 0 0 0 242.985 24.51 A 6.321 6.321 0 0 0 244.16 25.48 Q 245.6 26.4 247.28 26.4 A 6.111 6.111 0 0 0 249.111 26.133 A 5.442 5.442 0 0 0 250.16 25.68 A 8.342 8.342 0 0 0 251.352 24.874 A 6.524 6.524 0 0 0 252.24 24 Z M 117.6 17.76 L 129 17.76 A 9.742 9.742 0 0 0 128.838 15.926 Q 128.64 14.892 128.198 14.083 A 4.969 4.969 0 0 0 127.48 13.08 A 4.995 4.995 0 0 0 124.696 11.57 A 7.358 7.358 0 0 0 123.28 11.44 A 5.432 5.432 0 0 0 121.235 11.814 A 5.01 5.01 0 0 0 119.44 13.06 Q 117.92 14.68 117.6 17.76 Z M 190.4 17.76 L 201.8 17.76 A 9.742 9.742 0 0 0 201.638 15.926 Q 201.44 14.892 200.998 14.083 A 4.969 4.969 0 0 0 200.28 13.08 A 4.995 4.995 0 0 0 197.496 11.57 A 7.358 7.358 0 0 0 196.08 11.44 A 5.432 5.432 0 0 0 194.035 11.814 A 5.01 5.01 0 0 0 192.24 13.06 Q 190.72 14.68 190.4 17.76 Z M 68.895 4.515 A 2.389 2.389 0 0 0 70.64 5.24 A 3.27 3.27 0 0 0 71.238 5.188 A 2.259 2.259 0 0 0 72.48 4.54 A 2.311 2.311 0 0 0 73.05 3.553 A 3.004 3.004 0 0 0 73.16 2.72 A 2.908 2.908 0 0 0 73.16 2.688 A 2.424 2.424 0 0 0 72.42 0.94 A 2.957 2.957 0 0 0 72.397 0.917 A 2.423 2.423 0 0 0 70.64 0.2 A 3.305 3.305 0 0 0 69.978 0.263 A 2.264 2.264 0 0 0 68.8 0.88 A 2.235 2.235 0 0 0 68.212 1.933 A 3.195 3.195 0 0 0 68.12 2.72 A 2.397 2.397 0 0 0 68.317 3.687 A 2.657 2.657 0 0 0 68.86 4.48 A 2.986 2.986 0 0 0 68.895 4.515 Z M 228.695 4.515 A 2.389 2.389 0 0 0 230.44 5.24 A 3.27 3.27 0 0 0 231.038 5.188 A 2.259 2.259 0 0 0 232.28 4.54 A 2.311 2.311 0 0 0 232.85 3.553 A 3.004 3.004 0 0 0 232.96 2.72 A 2.908 2.908 0 0 0 232.96 2.688 A 2.424 2.424 0 0 0 232.22 0.94 A 2.957 2.957 0 0 0 232.197 0.917 A 2.423 2.423 0 0 0 230.44 0.2 A 3.305 3.305 0 0 0 229.778 0.263 A 2.264 2.264 0 0 0 228.6 0.88 A 2.235 2.235 0 0 0 228.012 1.933 A 3.195 3.195 0 0 0 227.92 2.72 A 2.397 2.397 0 0 0 228.117 3.687 A 2.657 2.657 0 0 0 228.66 4.48 A 2.986 2.986 0 0 0 228.695 4.515 Z" vector-effect="non-scaling-stroke"/></g></svg>